# xmcd
#
# Track frame offsets:
#	150
#	12544
#	25328
#	41682
#	58967
#	76784
#	90679
#	105089
#	121278
#	134139
#	150015
#	166794
#	182417
#	196680
#	210634
#	226849
#	239055
#	261400
#	274794
#	287296
#	306213
#	318797
#
# Disc length: 4425 seconds
#
# Revision: 0
# Processed by: cddbd v1.5.2PL0 Copyright (c) Steve Scherf et al.
# Submitted via: audiograbber 1.83.01
#
DISCID=1e114716
DTITLE=Dolly Parton - Pure and Simple (Deluxe)
DYEAR=2016
DGENRE=Country
TTITLE0=Pure and Simple
TTITLE1=Say Forever You'll Be Mine
TTITLE2=Never Not Love You
TTITLE3=Kiss It (And Make It All Better)
TTITLE4=Can't Be That Wrong
TTITLE5=Outside Your Door
TTITLE6=Tomorrow Is Forever
TTITLE7=I'm Sixteen
TTITLE8=Head Over High Heels
TTITLE9=Forever Love
TTITLE10=Mama
TTITLE11=Lovin' You
TTITLE12=My Tennessee Mountain Home
TTITLE13=Coat of Many Colors
TTITLE14=How Great Thou Art
TTITLE15=Jolene
TTITLE16=Light of a Clear Blue Morning
TTITLE17=Here You Come Again
TTITLE18=Help!
TTITLE19=Islands In the Stream and Kenny Rogers
TTITLE20=9 to 5
TTITLE21=I Will Always Love You
EXTD=
EXTT0=
EXTT1=
EXTT2=
EXTT3=
EXTT4=
EXTT5=
EXTT6=
EXTT7=
EXTT8=
EXTT9=
EXTT10=
EXTT11=
EXTT12=
EXTT13=
EXTT14=
EXTT15=
EXTT16=
EXTT17=
EXTT18=
EXTT19=
EXTT20=
EXTT21=
PLAYORDER=
